# xmcd
#
# Track frame offsets:
#	150
#	15654
#	34903
#	47464
#	61182
#	79602
#	96611
#	110716
#	126076
#	144176
#	158613
#	175454
#	192452
#	208518
#	221618
#	240506
#	252732
#
# Disc length: 3537 seconds
#
# Revision: 1
# Processed by: cddbd v1.5.1PL2 Copyright (c) Steve Scherf et al.
# Submitted via: audiograbber 1.83.01
#
DISCID=f00dcf11
DTITLE=Various Artist - Hott Country 125
DYEAR=2006
DGENRE=Country
TTITLE0=Keith Urban - Live To Love Another Day
TTITLE1=Dixie Chicks - Everybody Knows
TTITLE2=Gretchen Wilson - California Girls
TTITLE3=Damian Marshall - Why Don't We
TTITLE4=Road Hammers - Girl On The Billboard
TTITLE5=Steve Azar - You Don't Know A Thing
TTITLE6=Duane Steele - Comin' Back Around
TTITLE7=Faith Hill - Sunshine And Summertime
TTITLE8=Little Big Town - Bring It On Home
TTITLE9=Amanda Wilkinson - Walk Away
TTITLE10=Michelle Wright - I've Forgotten You
TTITLE11=Pat Green - Feels Just Like It Should
TTITLE12=Matt Jenkins - Bad As I Want To Be
TTITLE13=Lost Trailers - Chicken Fried
TTITLE14=Dixie Chicks - Voice In My Head
TTITLE15=Jack Ingram - Love You
TTITLE16=Dwight Yoakam - Streets Of Bakersfield
EXTD=July 2006
EXTT0=
EXTT1=
EXTT2=
EXTT3=
EXTT4=
EXTT5=
EXTT6=
EXTT7=
EXTT8=
EXTT9=
EXTT10=
EXTT11=
EXTT12=
EXTT13=
EXTT14=
EXTT15=
EXTT16=
PLAYORDER=
